<svg id="svg" version="1.1" xmlns="http://www.w3.org/2000/svg" xmlns:xlink="http://www.w3.org/1999/xlink" width="400" height="268.1318681318681" viewBox="0, 0, 400,268.1318681318681"><g id="svgg"><path id="path0" d="M192.277 5.084 C 84.199 5.191,43.657 5.312,43.518 5.528 C 43.413 5.691,42.886 5.906,42.348 6.005 C 41.809 6.104,41.228 6.354,41.056 6.561 C 40.582 7.132,36.402 8.559,33.498 9.142 C 30.170 9.809,29.337 10.173,27.543 11.743 C 26.592 12.574,25.540 13.200,24.586 13.501 C 23.344 13.892,22.881 14.234,21.734 15.607 C 20.981 16.508,19.913 17.573,19.360 17.973 C 18.808 18.373,18.134 19.039,17.863 19.453 C 17.323 20.278,16.460 21.125,14.776 22.487 C 14.170 22.976,13.437 23.841,13.148 24.408 C 12.859 24.976,12.100 25.868,11.462 26.390 C 10.537 27.148,10.175 27.710,9.677 29.163 C 8.945 31.302,7.754 33.557,6.661 34.876 C 6.233 35.392,5.764 35.964,5.619 36.145 C 4.841 37.115,4.325 45.414,4.829 48.826 C 4.994 49.942,4.996 73.864,4.833 115.225 C 4.388 228.323,4.405 230.878,5.628 231.791 C 5.727 231.865,5.971 232.520,6.171 233.246 C 6.417 234.140,6.902 234.940,7.668 235.717 C 8.806 236.872,9.257 237.820,10.067 240.759 C 10.431 242.079,10.803 242.658,12.246 244.153 C 13.203 245.144,14.312 246.586,14.711 247.357 C 15.331 248.558,15.626 248.833,16.772 249.281 C 18.130 249.812,19.584 250.962,19.584 251.507 C 19.584 251.889,20.892 253.098,22.911 254.582 C 23.782 255.222,25.141 256.332,25.932 257.048 C 26.723 257.764,27.421 258.350,27.484 258.350 C 29.436 258.350,33.535 259.979,34.925 261.308 C 35.378 261.740,36.155 262.171,36.653 262.264 C 37.151 262.358,37.559 262.530,37.559 262.647 C 37.559 263.696,359.087 263.686,359.446 262.636 C 359.495 262.492,359.770 262.374,360.058 262.374 C 360.727 262.374,362.213 261.755,362.720 261.266 C 363.845 260.179,364.849 259.683,368.055 258.625 C 371.145 257.606,371.631 257.364,372.095 256.613 C 372.608 255.782,374.868 254.326,375.643 254.326 C 376.148 254.326,376.973 253.368,377.527 252.137 C 377.959 251.179,378.249 250.905,380.123 249.688 C 380.705 249.311,381.170 248.710,381.401 248.039 C 381.885 246.631,382.374 246.138,384.093 245.324 C 384.890 244.947,385.584 244.495,385.636 244.318 C 387.001 239.689,387.206 239.226,388.444 237.981 C 389.958 236.460,390.148 235.977,390.731 232.193 C 391.189 229.215,392.104 225.433,393.048 222.611 C 393.330 221.767,393.561 220.402,393.561 219.577 C 393.561 217.869,394.043 215.653,394.477 215.368 C 394.931 215.070,394.888 48.776,394.433 48.625 C 394.249 48.564,394.098 48.129,394.098 47.660 C 394.098 47.190,393.866 46.373,393.582 45.844 C 392.788 44.361,391.771 40.758,390.981 36.620 L 390.264 32.864 388.988 31.657 C 387.592 30.335,387.075 29.467,386.594 27.632 C 386.095 25.727,384.345 23.380,383.099 22.945 C 382.877 22.868,382.228 22.156,381.656 21.363 C 381.030 20.495,379.931 19.471,378.894 18.789 C 377.947 18.166,376.862 17.189,376.484 16.618 C 375.461 15.072,373.172 13.511,371.251 13.050 C 370.858 12.956,369.893 12.224,369.105 11.423 L 367.673 9.966 363.456 9.028 C 360.316 8.330,358.682 7.811,357.054 6.996 C 355.851 6.394,354.700 5.902,354.496 5.902 C 354.292 5.902,354.125 5.795,354.125 5.664 C 354.125 5.455,350.985 5.269,343.125 5.012 C 341.871 4.971,273.990 5.004,192.277 5.084 M348.223 6.452 C 349.996 6.735,352.482 7.453,354.661 8.313 C 356.004 8.842,359.112 9.533,361.368 9.803 C 362.634 9.955,363.919 10.203,366.935 10.875 C 367.267 10.949,367.539 11.147,367.539 11.314 C 367.539 12.054,368.934 13.388,370.150 13.810 C 372.579 14.655,373.579 15.277,374.120 16.282 C 374.409 16.819,374.952 17.449,375.327 17.683 C 377.218 18.863,379.406 20.884,381.489 23.373 C 382.586 24.684,383.081 25.167,384.716 26.522 C 385.020 26.773,385.524 27.921,385.892 29.199 C 386.545 31.463,387.220 32.488,388.445 33.079 C 389.291 33.488,389.856 35.810,390.449 41.315 C 390.679 43.454,391.062 46.533,391.299 48.156 C 392.251 54.654,390.797 126.556,389.366 143.729 L 389.226 145.406 373.352 145.408 L 357.478 145.411 356.137 146.036 C 355.399 146.380,354.626 146.866,354.420 147.116 C 354.069 147.540,354.007 147.535,353.478 147.037 C 351.352 145.040,347.251 145.088,345.556 147.130 C 345.039 147.753,340.928 147.735,340.408 147.107 C 338.726 145.073,334.635 145.038,332.502 147.041 C 331.975 147.535,331.914 147.540,331.563 147.116 C 330.456 145.778,328.776 145.411,323.742 145.408 L 318.981 145.406 318.934 146.546 L 318.887 147.686 318.784 146.546 L 318.681 145.406 314.404 145.406 L 310.127 145.406 310.127 146.479 L 310.127 147.552 307.847 147.552 L 305.567 147.552 305.567 146.479 L 305.567 145.406 301.274 145.406 L 296.982 145.406 296.935 146.546 L 296.888 147.686 296.785 146.546 L 296.683 145.406 291.936 145.412 C 286.880 145.418,285.669 145.673,284.212 147.041 C 283.686 147.535,283.624 147.540,283.273 147.116 C 281.583 145.073,277.497 145.034,275.359 147.041 C 274.832 147.535,274.771 147.540,274.420 147.116 C 273.078 145.494,272.361 145.411,259.634 145.408 C 246.904 145.406,246.181 145.484,244.507 147.044 C 243.981 147.535,243.919 147.540,243.568 147.116 C 241.906 145.107,237.508 145.102,235.849 147.107 C 235.314 147.754,230.951 147.754,230.415 147.107 C 228.768 145.116,223.539 145.225,222.271 147.277 C 222.132 147.502,221.911 147.437,221.501 147.052 C 220.030 145.672,218.832 145.418,213.749 145.412 L 208.987 145.406 208.940 146.546 L 208.894 147.686 208.791 146.546 L 208.688 145.406 204.545 145.406 L 200.402 145.406 200.402 146.479 L 200.402 147.552 197.988 147.552 L 195.573 147.552 195.573 146.479 L 195.573 145.406 191.281 145.406 L 186.989 145.406 186.942 146.546 L 186.895 147.686 186.791 146.525 L 186.687 145.364 181.674 145.452 C 176.408 145.544,175.224 145.809,174.120 147.139 C 173.794 147.532,173.713 147.523,173.199 147.041 C 171.128 145.097,166.397 145.224,165.141 147.257 C 164.827 147.765,160.565 147.637,160.127 147.107 C 158.496 145.136,153.990 145.089,152.238 147.025 C 151.757 147.556,151.749 147.556,151.195 147.036 C 149.990 145.905,148.356 145.418,145.741 145.412 L 143.260 145.406 143.260 146.479 C 143.260 147.069,143.139 147.552,142.991 147.552 C 142.835 147.552,142.723 146.658,142.723 145.406 L 142.723 143.260 138.565 143.260 L 134.406 143.260 134.406 145.406 L 134.406 147.552 131.992 147.552 L 129.577 147.552 129.577 146.479 L 129.577 145.406 125.419 145.406 L 121.261 145.406 121.214 146.546 L 121.167 147.686 121.064 146.546 L 120.962 145.406 98.720 145.406 C 74.283 145.406,74.876 145.368,73.078 147.044 C 72.552 147.535,72.491 147.540,72.140 147.116 C 70.478 145.107,66.079 145.102,64.421 147.107 C 63.885 147.754,59.522 147.754,58.987 147.107 C 57.340 145.116,52.111 145.225,50.842 147.277 C 50.704 147.502,50.482 147.437,50.072 147.052 C 48.601 145.672,47.403 145.418,42.321 145.412 L 37.559 145.406 37.512 146.546 L 37.465 147.686 37.362 146.546 L 37.260 145.406 33.117 145.406 L 28.974 145.406 28.974 146.479 L 28.974 147.552 26.559 147.552 L 24.145 147.552 24.145 146.479 L 24.145 145.406 19.852 145.406 L 15.560 145.406 15.513 146.546 L 15.466 147.686 15.364 146.546 L 15.261 145.406 11.017 145.406 L 6.772 145.406 6.609 118.377 C 6.519 103.511,6.341 80.241,6.212 66.667 C 5.969 41.089,6.074 37.097,6.999 36.792 C 8.416 36.326,9.629 33.902,10.743 29.309 C 10.896 28.682,11.141 28.169,11.289 28.169 C 11.983 28.169,13.874 26.176,14.083 25.223 C 14.343 24.041,15.127 23.212,16.374 22.801 C 17.478 22.436,17.916 21.978,18.755 20.308 C 18.990 19.842,19.604 19.191,20.121 18.862 C 22.026 17.646,22.321 17.356,22.808 16.220 C 23.360 14.933,23.674 14.712,25.620 14.237 C 27.281 13.833,29.663 12.498,30.208 11.667 C 30.711 10.899,32.129 10.316,34.071 10.077 C 38.708 9.506,44.022 8.106,45.588 7.042 C 46.239 6.599,49.888 6.569,110.932 6.505 C 146.492 6.468,176.553 6.402,177.733 6.359 C 184.314 6.116,346.670 6.205,348.223 6.452 M389.044 250.546 C 389.101 252.463,389.155 252.663,389.524 252.347 C 390.251 251.728,390.568 251.626,390.767 251.949 C 390.881 252.133,390.846 252.191,390.682 252.090 C 390.529 251.995,390.263 252.086,390.091 252.293 C 389.899 252.524,389.879 252.730,390.038 252.828 C 390.180 252.916,390.357 252.836,390.432 252.651 C 390.540 252.383,390.572 252.383,390.589 252.649 C 390.601 252.834,390.822 252.975,391.080 252.963 C 391.338 252.952,391.405 252.884,391.229 252.812 C 391.053 252.740,390.975 252.510,391.055 252.300 C 391.175 251.987,391.280 252.003,391.644 252.391 C 391.887 252.650,391.995 252.745,391.885 252.601 C 391.475 252.071,391.700 251.844,392.193 252.290 C 392.536 252.600,392.763 252.655,392.884 252.459 C 392.983 252.298,392.965 252.200,392.844 252.240 C 392.722 252.281,392.592 252.223,392.555 252.113 C 392.411 251.680,392.501 251.375,392.772 251.375 C 392.929 251.375,392.982 251.496,392.891 251.643 C 392.799 251.791,392.863 251.911,393.031 251.911 C 393.780 251.911,393.026 251.250,392.232 251.211 C 391.729 251.185,391.489 251.255,391.677 251.371 C 391.860 251.484,391.900 251.644,391.766 251.726 C 391.500 251.890,390.822 251.555,390.850 251.273 C 390.902 250.741,391.566 250.369,391.936 250.664 C 392.235 250.902,392.277 250.896,392.122 250.637 C 392.011 250.453,392.041 250.302,392.188 250.302 C 392.336 250.302,392.532 250.425,392.625 250.574 C 392.718 250.724,392.914 250.773,393.061 250.682 C 393.223 250.582,393.155 250.325,392.888 250.030 C 392.479 249.578,392.482 249.535,392.937 249.418 C 393.387 249.301,393.384 249.288,392.906 249.260 C 392.417 249.231,392.414 249.208,392.856 248.885 C 393.254 248.594,392.996 248.530,391.153 248.465 L 388.980 248.389 389.044 250.546 M390.721 250.712 C 390.324 251.232,389.982 251.624,389.960 251.583 C 389.939 251.543,389.745 251.268,389.528 250.973 C 389.163 250.474,389.169 250.462,389.613 250.811 C 390.077 251.175,390.841 250.662,390.870 249.966 C 390.875 249.856,391.005 249.765,391.161 249.765 C 391.316 249.765,391.118 250.191,390.721 250.712 " stroke="none" fill="#9ccceb" fill-rule="evenodd"></path><path id="path1" d="M44.534 1.177 C 44.534 2.509,44.498 2.492,48.021 2.812 C 48.981 2.899,116.115 3.081,197.209 3.215 C 350.202 3.469,345.153 3.491,351.643 2.524 L 352.783 2.354 352.783 1.177 L 352.783 0.000 198.659 0.000 L 44.534 0.000 44.534 1.177 M24.511 2.539 C 24.369 2.692,24.264 3.692,24.277 4.762 L 24.301 6.707 23.485 6.711 C 22.449 6.716,21.970 7.020,21.978 7.670 C 21.981 7.952,21.989 8.823,21.996 9.606 C 22.007 10.972,22.045 11.046,22.933 11.417 C 24.630 12.126,25.155 11.720,25.384 9.524 C 25.629 7.169,25.546 7.211,29.671 7.363 C 32.181 7.456,33.478 7.397,34.035 7.163 L 34.827 6.830 33.980 4.555 L 33.132 2.280 28.950 2.271 C 26.400 2.265,24.667 2.370,24.511 2.539 M362.766 4.457 L 362.844 6.808 364.722 7.288 C 366.580 7.763,369.781 7.927,370.972 7.608 C 371.561 7.450,371.586 7.337,371.540 5.066 C 371.481 2.105,371.717 2.249,366.790 2.171 L 362.688 2.106 362.766 4.457 M371.769 7.356 C 371.697 7.737,371.711 8.048,371.801 8.048 C 371.891 8.048,371.965 8.742,371.965 9.590 C 371.965 11.036,372.008 11.139,372.636 11.215 C 374.019 11.383,377.479 12.672,377.701 13.101 C 377.827 13.347,378.008 13.970,378.102 14.487 C 378.306 15.600,379.940 17.438,380.728 17.438 C 381.913 17.438,383.084 18.264,383.361 19.296 C 383.719 20.624,384.593 21.362,386.019 21.541 C 387.867 21.774,388.293 22.658,388.857 27.431 C 388.960 28.305,389.176 28.986,389.355 29.002 C 389.529 29.017,390.139 29.068,390.711 29.116 C 392.170 29.237,392.277 29.430,392.520 32.383 C 392.724 34.853,393.185 38.096,393.352 38.228 C 393.393 38.261,394.429 38.099,395.654 37.868 L 397.881 37.448 397.800 33.144 C 397.708 28.242,398.079 28.805,394.903 28.739 L 393.293 28.706 393.293 24.309 L 393.293 19.912 392.153 19.915 C 391.526 19.917,390.560 19.903,390.007 19.885 L 389.001 19.852 389.001 17.730 L 389.001 15.607 387.928 15.426 C 387.337 15.326,386.372 15.326,385.781 15.426 L 384.708 15.607 384.704 13.639 C 384.700 11.543,384.538 11.024,383.900 11.061 C 383.680 11.074,382.746 11.065,381.824 11.042 L 380.148 10.999 380.148 8.915 L 380.148 6.831 376.025 6.747 L 371.902 6.664 371.769 7.356 M11.232 11.252 C 11.213 11.334,11.182 12.307,11.163 13.414 L 11.128 15.426 9.387 15.463 C 6.695 15.521,6.851 15.386,6.758 17.738 L 6.676 19.826 7.714 20.481 C 8.285 20.842,9.318 21.766,10.010 22.536 C 10.791 23.405,11.268 23.767,11.268 23.493 C 11.268 22.683,12.324 20.966,13.107 20.503 C 13.532 20.252,14.135 19.520,14.448 18.877 C 14.761 18.233,15.139 17.706,15.288 17.706 C 15.438 17.706,15.560 17.459,15.560 17.157 C 15.560 16.856,15.863 16.306,16.233 15.935 C 16.991 15.178,16.972 14.690,16.117 12.957 C 15.810 12.337,15.560 11.704,15.560 11.549 C 15.560 11.207,15.612 11.216,13.213 11.153 C 12.143 11.125,11.252 11.170,11.232 11.252 M2.150 27.384 C 2.145 29.065,3.511 30.262,5.960 30.721 C 7.618 31.032,8.569 28.037,7.177 26.885 C 6.729 26.513,2.683 26.341,2.678 26.693 C 2.676 26.841,2.558 26.781,2.414 26.559 C 2.226 26.267,2.153 26.493,2.150 27.384 M0.000 101.140 L 0.000 167.136 1.207 167.136 L 2.414 167.136 2.420 160.630 C 2.423 157.052,2.538 145.734,2.675 135.480 C 2.812 125.225,3.067 101.925,3.242 83.702 L 3.559 50.570 2.975 48.244 C 2.445 46.133,2.417 45.676,2.679 43.281 C 3.486 35.889,3.346 35.144,1.149 35.144 L 0.000 35.144 0.000 101.140 M397.740 61.234 C 397.462 74.155,397.089 114.656,396.781 165.392 C 396.625 191.214,396.384 213.634,396.245 215.215 C 395.874 219.450,396.854 221.865,398.945 221.865 L 400.000 221.865 400.000 137.492 L 400.000 53.119 398.958 53.119 L 397.915 53.119 397.740 61.234 M0.000 232.193 L 0.000 239.571 1.073 239.571 L 2.146 239.571 2.193 242.052 C 2.219 243.417,2.249 245.379,2.260 246.412 L 2.280 248.290 4.494 248.368 L 6.707 248.446 6.707 250.313 C 6.707 251.340,6.697 252.257,6.684 252.351 C 6.635 252.721,7.350 252.903,9.063 252.959 C 11.213 253.029,10.941 252.731,11.048 255.133 L 11.138 257.143 13.371 257.221 L 15.603 257.299 15.424 258.361 C 15.325 258.945,15.326 259.906,15.426 260.496 L 15.607 261.569 18.016 261.569 C 21.297 261.569,21.946 261.109,22.383 258.473 C 22.578 257.299,21.824 256.423,19.656 255.302 C 19.179 255.055,18.587 254.463,18.342 253.986 C 17.694 252.728,15.972 251.149,14.612 250.566 C 13.708 250.179,13.333 249.823,13.007 249.041 C 12.399 247.582,11.054 246.278,10.159 246.278 C 8.054 246.278,7.658 245.605,7.751 242.190 C 7.846 238.715,7.496 238.229,4.899 238.229 C 2.326 238.229,1.858 237.160,3.052 234.007 C 3.676 232.360,3.649 230.951,2.929 227.700 L 2.291 224.816 1.146 224.816 L 0.000 224.816 0.000 232.193 M394.719 231.183 L 393.328 231.281 392.626 233.389 C 391.565 236.576,392.210 237.949,394.770 237.957 C 395.509 237.959,396.505 238.073,396.984 238.211 L 397.854 238.460 397.854 234.723 L 397.854 230.986 396.982 231.036 C 396.502 231.063,395.484 231.129,394.719 231.183 M388.322 242.807 C 387.190 245.040,387.802 245.674,391.215 245.799 L 393.294 245.875 393.294 244.897 C 393.293 243.785,392.150 242.568,390.433 241.851 C 389.092 241.290,389.090 241.291,388.322 242.807 M383.927 247.678 C 382.694 248.939,383.231 251.107,384.777 251.107 C 386.317 251.107,387.098 248.643,385.928 247.473 C 385.081 246.627,384.941 246.641,383.927 247.678 M379.628 252.564 L 379.063 253.166 379.632 253.889 C 380.530 255.031,382.833 253.981,382.070 252.778 C 381.600 252.038,380.235 251.918,379.628 252.564 M375.260 256.825 C 374.878 257.147,374.426 257.854,374.257 258.396 C 373.817 259.807,373.611 259.900,368.343 261.090 C 366.693 261.463,366.499 261.681,366.529 263.129 C 366.582 265.702,365.071 266.493,361.992 265.502 C 359.721 264.771,358.393 264.719,355.180 265.235 C 351.626 265.806,321.710 265.828,229.779 265.329 C 124.599 264.758,49.943 264.680,48.020 265.139 C 46.555 265.488,45.781 265.508,43.191 265.263 C 36.184 264.599,34.827 264.901,34.659 267.163 L 34.577 268.276 200.789 268.276 L 367.002 268.276 367.002 267.203 L 367.002 266.130 370.758 266.097 C 375.690 266.053,375.716 266.050,375.755 265.661 C 375.773 265.476,375.803 264.480,375.822 263.447 L 375.855 261.569 376.727 261.570 L 377.599 261.571 377.509 259.491 C 377.419 257.419,377.236 256.924,376.397 256.475 C 376.085 256.308,375.750 256.411,375.260 256.825 M27.438 260.757 C 25.724 261.164,25.206 261.720,25.234 263.121 C 25.249 263.817,25.138 264.779,24.990 265.258 L 24.719 266.130 26.827 266.130 C 29.359 266.130,30.852 264.678,30.852 262.213 C 30.852 261.629,29.200 260.435,28.515 260.524 C 28.399 260.539,27.914 260.644,27.438 260.757 M19.970 265.620 C 19.738 265.995,20.324 266.130,20.623 265.769 C 20.845 265.502,20.817 265.415,20.507 265.415 C 20.282 265.415,20.040 265.507,19.970 265.620 " stroke="none" fill="#676c6e" fill-rule="evenodd"></path><path id="path2" d="M233.937 6.726 C 195.795 6.816,157.404 7.021,148.625 7.182 C 114.452 7.808,110.404 7.871,102.482 7.910 C 97.981 7.932,84.400 8.044,72.300 8.160 C 49.554 8.377,49.510 8.379,42.790 9.620 C 41.167 9.920,38.258 10.289,36.326 10.441 C 32.052 10.775,32.049 10.777,31.412 12.216 C 30.735 13.746,28.357 14.781,24.816 15.088 C 24.094 15.150,23.978 15.291,23.691 16.453 C 23.234 18.304,22.139 19.316,20.590 19.316 C 19.789 19.316,19.316 19.787,19.316 20.585 C 19.316 22.373,18.509 23.178,16.106 23.789 C 15.240 24.009,15.156 24.127,14.877 25.523 C 14.566 27.072,13.626 28.706,13.046 28.706 C 12.189 28.706,11.090 30.448,10.760 32.327 C 10.140 35.864,9.869 36.785,9.359 37.104 C 9.081 37.277,8.853 37.541,8.853 37.690 C 8.853 37.839,8.370 38.490,7.780 39.135 L 6.707 40.309 6.707 54.360 L 6.707 68.410 28.561 68.410 L 50.415 68.410 50.504 70.758 L 50.594 73.105 50.649 70.758 L 50.704 68.410 54.997 68.410 L 59.289 68.410 59.289 70.691 L 59.289 72.971 61.704 72.971 L 64.118 72.971 64.118 70.691 L 64.118 68.410 68.266 68.410 L 72.414 68.410 72.503 70.758 L 72.593 73.105 72.648 70.758 L 72.703 68.410 79.142 68.410 L 85.580 68.410 85.580 70.691 C 85.580 72.032,85.691 72.971,85.848 72.971 C 86.006 72.971,86.117 72.032,86.117 70.691 L 86.117 68.410 90.275 68.410 L 94.433 68.410 94.433 70.691 L 94.433 72.971 105.567 72.971 L 116.700 72.971 116.700 70.691 L 116.700 68.410 120.982 68.410 L 125.264 68.410 125.354 70.758 L 125.443 73.105 125.498 70.758 L 125.553 68.410 140.835 68.410 L 156.116 68.410 156.205 70.758 L 156.295 73.105 156.350 70.758 L 156.405 68.410 160.563 68.410 L 164.722 68.410 164.722 70.691 L 164.722 72.971 175.855 72.971 L 186.989 72.971 186.989 70.691 L 186.989 68.410 191.271 68.410 L 195.553 68.410 195.642 70.758 L 195.731 73.105 195.787 70.758 L 195.842 68.410 202.270 68.410 L 208.698 68.410 208.788 70.758 L 208.877 73.105 208.932 70.758 L 208.987 68.410 213.280 68.410 L 217.572 68.410 217.572 70.691 L 217.572 72.971 219.852 72.971 L 222.133 72.971 222.133 70.691 L 222.133 68.410 226.415 68.410 L 230.697 68.410 230.786 70.758 L 230.876 73.105 230.931 70.758 L 230.986 68.410 237.414 68.410 L 243.842 68.410 243.932 70.758 L 244.021 73.105 244.076 70.758 L 244.131 68.410 248.424 68.410 L 252.716 68.410 252.716 70.691 L 252.716 72.971 263.850 72.971 L 274.983 72.971 274.983 70.691 L 274.983 68.410 279.265 68.410 L 283.547 68.410 283.637 70.758 L 283.726 73.105 283.781 70.758 L 283.836 68.410 307.837 68.410 L 331.837 68.410 331.926 70.758 L 332.016 73.105 332.071 70.758 L 332.126 68.410 336.419 68.410 L 340.711 68.410 340.711 70.691 L 340.711 72.971 342.991 72.971 L 345.272 72.971 345.272 70.691 L 345.272 68.410 349.554 68.410 L 353.836 68.410 353.925 70.758 L 354.014 73.105 354.070 70.758 L 354.125 68.410 360.553 68.410 L 366.981 68.410 367.071 70.758 L 367.160 73.105 367.215 70.758 L 367.270 68.410 371.563 68.410 L 375.855 68.410 375.855 70.691 L 375.855 72.971 382.519 72.971 L 389.182 72.971 389.360 64.477 C 389.578 54.022,389.592 37.898,389.383 36.854 C 389.267 36.277,388.964 35.970,388.176 35.634 C 386.946 35.108,385.688 32.773,385.385 30.449 C 385.029 27.717,385.021 27.701,383.982 27.506 C 382.840 27.291,381.590 26.132,381.333 25.051 C 381.124 24.170,380.222 23.072,379.708 23.072 C 379.124 23.072,377.532 21.499,377.340 20.733 C 377.137 19.925,376.425 19.334,375.100 18.872 C 373.831 18.430,373.213 17.780,372.878 16.534 C 372.519 15.203,371.995 14.775,370.708 14.764 C 369.033 14.749,365.661 12.409,365.661 11.260 C 365.661 11.022,362.416 10.524,359.490 10.313 C 353.308 9.866,348.609 8.719,347.483 7.381 L 346.803 6.573 325.045 6.567 C 313.078 6.564,272.079 6.636,233.937 6.726 M15.365 8.853 C 15.365 9.517,15.417 9.789,15.481 9.457 C 15.545 9.125,15.545 8.581,15.481 8.249 C 15.417 7.918,15.365 8.189,15.365 8.853 " stroke="none" fill="#c9e2f3" fill-rule="evenodd"></path><path id="path3" d="M177.733 6.359 C 176.553 6.402,146.492 6.468,110.932 6.505 C 49.888 6.569,46.239 6.599,45.588 7.042 C 44.022 8.106,38.708 9.506,34.071 10.077 C 32.129 10.316,30.711 10.899,30.208 11.667 C 29.663 12.498,27.281 13.833,25.620 14.237 C 23.674 14.712,23.360 14.933,22.808 16.220 C 22.321 17.356,22.026 17.646,20.121 18.862 C 19.604 19.191,18.990 19.842,18.755 20.308 C 17.916 21.978,17.478 22.436,16.374 22.801 C 15.127 23.212,14.343 24.041,14.083 25.223 C 13.874 26.176,11.983 28.169,11.289 28.169 C 11.141 28.169,10.896 28.682,10.743 29.309 C 9.629 33.902,8.416 36.326,6.999 36.792 C 6.074 37.097,5.969 41.089,6.212 66.667 C 6.341 80.241,6.519 103.511,6.609 118.377 L 6.772 145.406 11.017 145.406 L 15.261 145.406 15.364 146.546 L 15.466 147.686 15.513 146.546 L 15.560 145.406 19.852 145.406 L 24.145 145.406 24.145 146.479 L 24.145 147.552 26.559 147.552 L 28.974 147.552 28.974 146.479 L 28.974 145.406 33.117 145.406 L 37.260 145.406 37.362 146.546 L 37.465 147.686 37.512 146.546 L 37.559 145.406 42.321 145.412 C 47.403 145.418,48.601 145.672,50.072 147.052 C 50.482 147.437,50.704 147.502,50.842 147.277 C 52.111 145.225,57.340 145.116,58.987 147.107 C 59.522 147.754,63.885 147.754,64.421 147.107 C 66.079 145.102,70.478 145.107,72.140 147.116 C 72.491 147.540,72.552 147.535,73.078 147.044 C 74.876 145.368,74.283 145.406,98.720 145.406 L 120.962 145.406 121.064 146.546 L 121.167 147.686 121.214 146.546 L 121.261 145.406 125.419 145.406 L 129.577 145.406 129.577 146.479 L 129.577 147.552 131.992 147.552 L 134.406 147.552 134.406 145.406 L 134.406 143.260 138.565 143.260 L 142.723 143.260 142.723 145.406 C 142.723 146.658,142.835 147.552,142.991 147.552 C 143.139 147.552,143.260 147.069,143.260 146.479 L 143.260 145.406 145.741 145.412 C 148.356 145.418,149.990 145.905,151.195 147.036 C 151.749 147.556,151.757 147.556,152.238 147.025 C 153.990 145.089,158.496 145.136,160.127 147.107 C 160.565 147.637,164.827 147.765,165.141 147.257 C 166.397 145.224,171.128 145.097,173.199 147.041 C 173.713 147.523,173.794 147.532,174.120 147.139 C 175.224 145.809,176.408 145.544,181.674 145.452 L 186.687 145.364 186.791 146.525 L 186.895 147.686 186.942 146.546 L 186.989 145.406 191.281 145.406 L 195.573 145.406 195.573 146.479 L 195.573 147.552 197.988 147.552 L 200.402 147.552 200.402 146.479 L 200.402 145.406 204.545 145.406 L 208.688 145.406 208.791 146.546 L 208.894 147.686 208.940 146.546 L 208.987 145.406 213.749 145.412 C 218.832 145.418,220.030 145.672,221.501 147.052 C 221.911 147.437,222.132 147.502,222.271 147.277 C 223.539 145.225,228.768 145.116,230.415 147.107 C 230.951 147.754,235.314 147.754,235.849 147.107 C 237.508 145.102,241.906 145.107,243.568 147.116 C 243.919 147.540,243.981 147.535,244.507 147.044 C 246.181 145.484,246.904 145.406,259.634 145.408 C 272.361 145.411,273.078 145.494,274.420 147.116 C 274.771 147.540,274.832 147.535,275.359 147.041 C 277.497 145.034,281.583 145.073,283.273 147.116 C 283.624 147.540,283.686 147.535,284.212 147.041 C 285.669 145.673,286.880 145.418,291.936 145.412 L 296.683 145.406 296.785 146.546 L 296.888 147.686 296.935 146.546 L 296.982 145.406 301.274 145.406 L 305.567 145.406 305.567 146.479 L 305.567 147.552 307.847 147.552 L 310.127 147.552 310.127 146.479 L 310.127 145.406 314.404 145.406 L 318.681 145.406 318.784 146.546 L 318.887 147.686 318.934 146.546 L 318.981 145.406 323.742 145.408 C 328.776 145.411,330.456 145.778,331.563 147.116 C 331.914 147.540,331.975 147.535,332.502 147.041 C 334.635 145.038,338.726 145.073,340.408 147.107 C 340.928 147.735,345.039 147.753,345.556 147.130 C 347.251 145.088,351.352 145.040,353.478 147.037 C 354.007 147.535,354.069 147.540,354.420 147.116 C 354.626 146.866,355.399 146.380,356.137 146.036 L 357.478 145.411 373.352 145.408 L 389.226 145.406 389.366 143.729 C 390.797 126.556,392.251 54.654,391.299 48.156 C 391.062 46.533,390.679 43.454,390.449 41.315 C 389.856 35.810,389.291 33.488,388.445 33.079 C 387.220 32.488,386.545 31.463,385.892 29.199 C 385.524 27.921,385.020 26.773,384.716 26.522 C 383.081 25.167,382.586 24.684,381.489 23.373 C 379.406 20.884,377.218 18.863,375.327 17.683 C 374.952 17.449,374.409 16.819,374.120 16.282 C 373.579 15.277,372.579 14.655,370.150 13.810 C 368.934 13.388,367.539 12.054,367.539 11.314 C 367.539 11.147,367.267 10.949,366.935 10.875 C 363.919 10.203,362.634 9.955,361.368 9.803 C 359.112 9.533,356.004 8.842,354.661 8.313 C 352.482 7.453,349.996 6.735,348.223 6.452 C 346.670 6.205,184.314 6.116,177.733 6.359 M347.483 7.381 C 348.609 8.719,353.308 9.866,359.490 10.313 C 362.416 10.524,365.661 11.022,365.661 11.260 C 365.661 12.409,369.033 14.749,370.708 14.764 C 371.995 14.775,372.519 15.203,372.878 16.534 C 373.213 17.780,373.831 18.430,375.100 18.872 C 376.425 19.334,377.137 19.925,377.340 20.733 C 377.532 21.499,379.124 23.072,379.708 23.072 C 380.222 23.072,381.124 24.170,381.333 25.051 C 381.590 26.132,382.840 27.291,383.982 27.506 C 385.021 27.701,385.029 27.717,385.385 30.449 C 385.688 32.773,386.946 35.108,388.176 35.634 C 388.964 35.970,389.267 36.277,389.383 36.854 C 389.592 37.898,389.578 54.022,389.360 64.477 L 389.182 72.971 382.519 72.971 L 375.855 72.971 375.855 70.691 L 375.855 68.410 371.563 68.410 L 367.270 68.410 367.215 70.758 L 367.160 73.105 367.071 70.758 L 366.981 68.410 360.553 68.410 L 354.125 68.410 354.070 70.758 L 354.014 73.105 353.925 70.758 L 353.836 68.410 349.554 68.410 L 345.272 68.410 345.272 70.691 L 345.272 72.971 342.991 72.971 L 340.711 72.971 340.711 70.691 L 340.711 68.410 336.419 68.410 L 332.126 68.410 332.071 70.758 L 332.016 73.105 331.926 70.758 L 331.837 68.410 307.837 68.410 L 283.836 68.410 283.781 70.758 L 283.726 73.105 283.637 70.758 L 283.547 68.410 279.265 68.410 L 274.983 68.410 274.983 70.691 L 274.983 72.971 263.850 72.971 L 252.716 72.971 252.716 70.691 L 252.716 68.410 248.424 68.410 L 244.131 68.410 244.076 70.758 L 244.021 73.105 243.932 70.758 L 243.842 68.410 237.414 68.410 L 230.986 68.410 230.931 70.758 L 230.876 73.105 230.786 70.758 L 230.697 68.410 226.415 68.410 L 222.133 68.410 222.133 70.691 L 222.133 72.971 219.852 72.971 L 217.572 72.971 217.572 70.691 L 217.572 68.410 213.280 68.410 L 208.987 68.410 208.932 70.758 L 208.877 73.105 208.788 70.758 L 208.698 68.410 202.270 68.410 L 195.842 68.410 195.787 70.758 L 195.731 73.105 195.642 70.758 L 195.553 68.410 191.271 68.410 L 186.989 68.410 186.989 70.691 L 186.989 72.971 175.855 72.971 L 164.722 72.971 164.722 70.691 L 164.722 68.410 160.563 68.410 L 156.405 68.410 156.350 70.758 L 156.295 73.105 156.205 70.758 L 156.116 68.410 140.835 68.410 L 125.553 68.410 125.498 70.758 L 125.443 73.105 125.354 70.758 L 125.264 68.410 120.982 68.410 L 116.700 68.410 116.700 70.691 L 116.700 72.971 105.567 72.971 L 94.433 72.971 94.433 70.691 L 94.433 68.410 90.275 68.410 L 86.117 68.410 86.117 70.691 C 86.117 72.032,86.006 72.971,85.848 72.971 C 85.691 72.971,85.580 72.032,85.580 70.691 L 85.580 68.410 79.142 68.410 L 72.703 68.410 72.648 70.758 L 72.593 73.105 72.503 70.758 L 72.414 68.410 68.266 68.410 L 64.118 68.410 64.118 70.691 L 64.118 72.971 61.704 72.971 L 59.289 72.971 59.289 70.691 L 59.289 68.410 54.997 68.410 L 50.704 68.410 50.649 70.758 L 50.594 73.105 50.504 70.758 L 50.415 68.410 28.561 68.410 L 6.707 68.410 6.707 54.360 L 6.707 40.309 7.780 39.135 C 8.370 38.490,8.853 37.839,8.853 37.690 C 8.853 37.541,9.081 37.277,9.359 37.104 C 9.869 36.785,10.140 35.864,10.760 32.327 C 11.090 30.448,12.189 28.706,13.046 28.706 C 13.626 28.706,14.566 27.072,14.877 25.523 C 15.156 24.127,15.240 24.009,16.106 23.789 C 18.509 23.178,19.316 22.373,19.316 20.585 C 19.316 19.787,19.789 19.316,20.590 19.316 C 22.139 19.316,23.234 18.304,23.691 16.453 C 23.978 15.291,24.094 15.150,24.816 15.088 C 28.357 14.781,30.735 13.746,31.412 12.216 C 32.049 10.777,32.052 10.775,36.326 10.441 C 38.258 10.289,41.167 9.920,42.790 9.620 C 49.510 8.379,49.554 8.377,72.300 8.160 C 84.400 8.044,97.981 7.932,102.482 7.910 C 110.404 7.871,114.452 7.808,148.625 7.182 C 162.917 6.920,268.359 6.553,325.045 6.567 L 346.803 6.573 347.483 7.381 " stroke="none" fill="#b8daf2" fill-rule="evenodd"></path><path id="path4" d="M33.003 1.006 C 33.006 1.559,33.419 3.095,33.921 4.420 L 34.833 6.827 34.038 7.161 C 33.478 7.397,32.186 7.457,29.671 7.363 C 25.546 7.211,25.629 7.169,25.384 9.524 C 25.155 11.720,24.630 12.126,22.933 11.417 C 22.045 11.046,22.007 10.972,21.996 9.606 C 21.989 8.823,21.981 7.952,21.978 7.670 C 21.974 7.388,22.129 7.056,22.321 6.931 C 22.517 6.804,21.148 6.735,19.191 6.773 L 15.714 6.841 15.643 8.138 C 15.605 8.851,15.459 9.847,15.320 10.351 C 15.167 10.904,15.165 11.268,15.313 11.268 C 15.449 11.268,15.560 11.394,15.560 11.549 C 15.560 11.704,15.810 12.337,16.117 12.957 C 16.972 14.690,16.991 15.178,16.233 15.935 C 15.863 16.306,15.560 16.856,15.560 17.157 C 15.560 17.459,15.438 17.706,15.288 17.706 C 15.139 17.706,14.761 18.233,14.448 18.877 C 14.135 19.520,13.532 20.252,13.107 20.503 C 12.324 20.966,11.268 22.683,11.268 23.493 C 11.268 23.767,10.791 23.405,10.010 22.536 C 8.026 20.330,7.085 19.852,4.716 19.852 C 3.406 19.852,2.642 19.968,2.504 20.188 C 2.159 20.738,2.054 25.908,2.377 26.464 C 2.536 26.738,2.670 26.841,2.674 26.693 C 2.684 26.341,6.729 26.513,7.177 26.885 C 8.567 28.036,7.618 31.032,5.963 30.722 C 4.801 30.504,3.187 29.715,2.699 29.128 C 2.478 28.861,1.915 28.706,1.174 28.706 L 0.000 28.706 0.000 31.925 L 0.000 35.144 1.149 35.144 C 3.346 35.144,3.486 35.889,2.679 43.281 C 2.417 45.676,2.445 46.133,2.975 48.244 L 3.559 50.570 3.242 83.702 C 3.067 101.925,2.812 125.225,2.675 135.480 C 2.538 145.734,2.423 157.052,2.420 160.630 L 2.414 167.136 1.207 167.136 L 0.000 167.136 0.000 195.976 L 0.000 224.816 1.146 224.816 L 2.291 224.816 2.929 227.700 C 3.649 230.951,3.676 232.360,3.052 234.007 C 1.858 237.160,2.326 238.229,4.899 238.229 C 7.496 238.229,7.846 238.715,7.751 242.190 C 7.658 245.605,8.054 246.278,10.159 246.278 C 11.054 246.278,12.399 247.582,13.007 249.041 C 13.333 249.823,13.708 250.179,14.612 250.566 C 15.972 251.149,17.694 252.728,18.342 253.986 C 18.587 254.463,19.179 255.055,19.656 255.302 C 21.824 256.423,22.578 257.299,22.383 258.473 C 22.121 260.056,21.521 261.057,20.634 261.392 C 19.778 261.715,19.376 264.783,20.188 264.793 C 20.412 264.796,20.390 264.881,20.123 265.050 C 19.782 265.265,19.778 265.354,20.095 265.649 C 20.300 265.840,20.395 265.865,20.306 265.705 C 20.217 265.545,20.309 265.415,20.509 265.415 C 20.710 265.415,20.823 265.548,20.760 265.712 C 20.683 265.914,21.309 266.007,22.712 266.001 C 25.071 265.992,25.279 265.755,25.232 263.121 C 25.205 261.674,25.718 261.165,27.633 260.735 C 30.796 260.024,31.857 263.361,29.225 265.743 C 28.883 266.053,28.706 266.566,28.706 267.245 L 28.706 268.276 31.641 268.276 L 34.577 268.276 34.659 267.163 C 34.827 264.901,36.184 264.599,43.191 265.263 C 45.781 265.508,46.555 265.488,48.020 265.139 C 49.943 264.680,124.599 264.758,229.779 265.329 C 321.710 265.828,351.626 265.806,355.180 265.235 C 358.393 264.719,359.721 264.771,361.992 265.502 C 365.071 266.493,366.582 265.702,366.529 263.129 C 366.495 261.458,366.566 261.421,372.099 260.171 C 373.637 259.823,373.904 259.596,374.291 258.303 C 375.215 255.221,377.391 255.938,377.521 259.367 L 377.599 261.435 380.682 261.477 C 384.581 261.530,384.585 261.528,384.654 259.264 C 384.721 257.084,384.497 257.308,386.664 257.249 C 388.340 257.203,389.086 256.897,388.978 256.299 C 388.721 254.865,389.047 252.985,389.553 252.985 C 389.857 252.985,390.039 252.878,389.958 252.747 C 389.762 252.428,390.466 251.862,390.745 252.115 C 390.866 252.224,390.877 252.161,390.769 251.974 C 390.569 251.627,390.260 251.720,389.524 252.347 C 389.155 252.663,389.101 252.463,389.044 250.544 L 388.980 248.386 390.801 248.443 C 392.801 248.506,393.271 248.640,392.718 248.990 C 392.430 249.173,392.446 249.221,392.796 249.225 C 393.163 249.228,393.231 248.947,393.198 247.552 L 393.159 245.875 391.147 245.805 C 388.982 245.729,388.025 245.398,387.785 244.642 C 387.624 244.135,388.849 241.449,389.241 241.449 C 389.854 241.449,391.535 242.363,392.464 243.202 C 393.448 244.092,393.594 244.137,395.342 244.104 C 397.769 244.058,397.793 244.030,397.831 241.055 C 397.868 238.172,397.904 238.222,395.622 238.052 C 392.982 237.856,392.857 237.799,392.373 236.589 C 391.943 235.514,391.951 235.417,392.621 233.406 L 393.311 231.331 395.355 231.159 C 396.479 231.064,397.984 230.986,398.699 230.986 L 400.000 230.986 400.000 226.425 L 400.000 221.865 398.945 221.865 C 396.854 221.865,395.874 219.450,396.245 215.215 C 396.384 213.634,396.625 191.214,396.781 165.392 C 397.089 114.656,397.462 74.155,397.740 61.234 L 397.915 53.119 398.958 53.119 L 400.000 53.119 400.000 45.205 L 400.000 37.290 399.128 37.301 C 398.649 37.307,397.170 37.534,395.842 37.806 C 394.514 38.078,393.393 38.271,393.352 38.235 C 393.184 38.086,392.723 34.846,392.520 32.383 C 392.277 29.430,392.170 29.237,390.711 29.116 C 390.139 29.068,389.529 29.017,389.355 29.002 C 389.176 28.986,388.960 28.305,388.857 27.431 C 388.293 22.658,387.867 21.774,386.019 21.541 C 384.593 21.362,383.719 20.624,383.361 19.296 C 383.084 18.264,381.913 17.438,380.728 17.438 C 379.940 17.438,378.306 15.600,378.102 14.487 C 378.008 13.970,377.827 13.347,377.701 13.101 C 377.479 12.672,374.019 11.383,372.636 11.215 C 372.008 11.139,371.965 11.036,371.965 9.590 C 371.965 8.742,371.891 8.048,371.801 8.048 C 371.711 8.048,371.676 7.716,371.724 7.311 C 371.772 6.905,371.749 6.772,371.673 7.015 C 371.389 7.919,367.750 8.062,364.722 7.288 L 362.844 6.808 362.769 3.404 L 362.694 0.000 357.738 0.000 L 352.783 0.000 352.783 1.177 L 352.783 2.354 351.643 2.524 C 345.153 3.491,350.202 3.469,197.209 3.215 C 116.115 3.081,48.981 2.899,48.021 2.812 C 44.498 2.492,44.534 2.509,44.534 1.177 L 44.534 0.000 38.766 0.000 L 32.998 0.000 33.003 1.006 M349.765 5.257 C 352.163 5.350,354.125 5.534,354.125 5.664 C 354.125 5.795,354.292 5.902,354.496 5.902 C 354.700 5.902,355.851 6.394,357.054 6.996 C 358.682 7.811,360.316 8.330,363.456 9.028 L 367.673 9.966 369.105 11.423 C 369.893 12.224,370.858 12.956,371.251 13.050 C 373.172 13.511,375.461 15.072,376.484 16.618 C 376.862 17.189,377.947 18.166,378.894 18.789 C 379.931 19.471,381.030 20.495,381.656 21.363 C 382.228 22.156,382.877 22.868,383.099 22.945 C 384.345 23.380,386.095 25.727,386.594 27.632 C 387.075 29.467,387.592 30.335,388.988 31.657 L 390.264 32.864 390.981 36.620 C 391.771 40.758,392.788 44.361,393.582 45.844 C 393.866 46.373,394.098 47.190,394.098 47.660 C 394.098 48.129,394.249 48.564,394.433 48.625 C 394.888 48.776,394.931 215.070,394.477 215.368 C 394.043 215.653,393.561 217.869,393.561 219.577 C 393.561 220.402,393.330 221.767,393.048 222.611 C 392.104 225.433,391.189 229.215,390.731 232.193 C 390.148 235.977,389.958 236.460,388.444 237.981 C 387.206 239.226,387.001 239.689,385.636 244.318 C 385.584 244.495,384.890 244.947,384.093 245.324 C 382.374 246.138,381.885 246.631,381.401 248.039 C 381.170 248.710,380.705 249.311,380.123 249.688 C 378.249 250.905,377.959 251.179,377.527 252.137 C 376.973 253.368,376.148 254.326,375.643 254.326 C 374.868 254.326,372.608 255.782,372.095 256.613 C 371.631 257.364,371.145 257.606,368.055 258.625 C 364.849 259.683,363.845 260.179,362.720 261.266 C 362.213 261.755,360.727 262.374,360.058 262.374 C 359.770 262.374,359.495 262.492,359.446 262.636 C 359.087 263.686,37.559 263.696,37.559 262.647 C 37.559 262.530,37.151 262.358,36.653 262.264 C 36.155 262.171,35.378 261.740,34.925 261.308 C 33.535 259.979,29.436 258.350,27.484 258.350 C 27.421 258.350,26.723 257.764,25.932 257.048 C 25.141 256.332,23.782 255.222,22.911 254.582 C 20.892 253.098,19.584 251.889,19.584 251.507 C 19.584 250.962,18.130 249.812,16.772 249.281 C 15.626 248.833,15.331 248.558,14.711 247.357 C 14.312 246.586,13.203 245.144,12.246 244.153 C 10.803 242.658,10.431 242.079,10.067 240.759 C 9.257 237.820,8.806 236.872,7.668 235.717 C 6.902 234.940,6.417 234.140,6.171 233.246 C 5.971 232.520,5.727 231.865,5.628 231.791 C 4.405 230.878,4.388 228.323,4.833 115.225 C 4.996 73.864,4.994 49.942,4.829 48.826 C 4.325 45.414,4.841 37.115,5.619 36.145 C 5.764 35.964,6.233 35.392,6.661 34.876 C 7.754 33.557,8.945 31.302,9.677 29.163 C 10.175 27.710,10.537 27.148,11.462 26.390 C 12.100 25.868,12.859 24.976,13.148 24.408 C 13.437 23.841,14.170 22.976,14.776 22.487 C 16.460 21.125,17.323 20.278,17.863 19.453 C 18.134 19.039,18.808 18.373,19.360 17.973 C 19.913 17.573,20.981 16.508,21.734 15.607 C 22.881 14.234,23.344 13.892,24.586 13.501 C 25.540 13.200,26.592 12.574,27.543 11.743 C 29.337 10.173,30.170 9.809,33.498 9.142 C 36.402 8.559,40.582 7.132,41.056 6.561 C 41.228 6.354,41.809 6.104,42.348 6.005 C 42.886 5.906,43.413 5.691,43.518 5.528 C 43.688 5.264,335.471 4.762,343.125 5.012 C 344.380 5.053,347.368 5.163,349.765 5.257 M385.928 247.473 C 387.098 248.643,386.317 251.107,384.777 251.107 C 383.231 251.107,382.694 248.939,383.927 247.678 C 384.941 246.641,385.081 246.627,385.928 247.473 M392.488 249.598 C 392.488 249.654,392.669 249.850,392.891 250.034 C 393.220 250.307,393.293 250.289,393.293 249.932 C 393.293 249.693,393.112 249.497,392.891 249.497 C 392.669 249.497,392.488 249.543,392.488 249.598 M390.870 249.966 C 390.841 250.662,390.077 251.175,389.613 250.811 C 389.169 250.462,389.163 250.474,389.528 250.973 C 389.745 251.268,389.939 251.543,389.960 251.583 C 389.982 251.624,390.324 251.232,390.721 250.712 C 391.118 250.191,391.316 249.765,391.161 249.765 C 391.005 249.765,390.875 249.856,390.870 249.966 M391.208 250.726 C 390.665 251.316,391.117 252.127,391.766 251.726 C 391.900 251.644,391.871 251.491,391.702 251.386 C 391.532 251.282,391.749 251.196,392.184 251.196 C 392.865 251.196,392.921 251.248,392.594 251.575 C 392.175 251.995,392.355 252.562,392.817 252.277 C 393.005 252.161,393.032 252.230,392.893 252.474 C 392.716 252.784,392.744 252.789,393.050 252.504 C 393.361 252.214,393.363 252.121,393.061 251.934 C 392.809 251.778,392.789 251.655,392.996 251.527 C 393.159 251.426,393.293 251.162,393.293 250.941 C 393.293 250.720,393.181 250.608,393.043 250.693 C 392.906 250.778,392.718 250.724,392.625 250.574 C 392.532 250.425,392.336 250.302,392.188 250.302 C 392.041 250.302,392.011 250.453,392.122 250.637 C 392.277 250.896,392.235 250.902,391.936 250.664 C 391.640 250.428,391.469 250.443,391.208 250.726 M391.802 251.937 C 391.702 252.099,391.815 252.427,392.054 252.665 C 392.311 252.922,392.488 252.973,392.488 252.790 C 392.488 252.619,392.366 252.404,392.216 252.311 C 392.066 252.218,392.012 252.030,392.097 251.893 C 392.182 251.756,392.191 251.643,392.118 251.643 C 392.044 251.643,391.902 251.776,391.802 251.937 M382.070 252.778 C 382.378 253.265,382.350 253.388,381.824 253.850 C 380.908 254.655,380.244 254.667,379.632 253.889 L 379.063 253.166 379.628 252.564 C 380.235 251.918,381.600 252.038,382.070 252.778 M391.067 252.269 C 390.982 252.491,391.086 252.738,391.298 252.820 C 391.730 252.986,391.787 252.759,391.448 252.224 C 391.264 251.933,391.193 251.942,391.067 252.269 " stroke="none" fill="#8c8c8c" fill-rule="evenodd"></path></g></svg>